<?xml version="1.0" encoding="UTF-8"?>
<svg id="Layer_2" data-name="Layer 2" xmlns="http://www.w3.org/2000/svg" viewBox="0 0 464.64 98.19">
  <g id="Layer_1-2" data-name="Layer 1">
    <g>
      <path d="m30.66,33.56c.41-7.66.83-15.43.83-24.13v-.52c-10.67.41-17.3,2.49-21.44,5.08-3.31,2.07-4.87,4.45-5.28,6.53-3.31-.62-4.76-4.25-4.76-8.18,0-2.59.73-5.28,2.49-7.15C5.9,1.24,10.88,0,18.13,0c4.56,0,9.94.62,16.68,1.14,9.01.73,18.64,2.38,29.42,2.49.1.31.1.62.1,1.04,0,1.97-1.24,4.35-4.87,4.87-1.45.21-3,.21-4.56.21-3,0-6.53-.21-9.94-.41-.73,0-1.55-.1-2.28-.1.21,3.42.31,8.91.31,14.4,0,3.42-.1,6.94-.1,10.05h1.66c2.07,0,3.94.1,5.59.1,2.38,0,4.04-.1,5.59-.21.21.62.31,1.24.31,1.76,0,3.31-3.42,5.28-7.25,5.49l-6.11.31c-.1,5.9-.1,11.19-.1,15.85,0,10.77.21,18.75.52,23.82h-.73c-3.21,0-11.29-1.86-11.91-9.53-.31-3.11-.41-6.53-.41-10.46,0-5.18.21-11.5.41-19.06-6.32.31-11.5.41-11.5.41-.52-.52-1.04-2.07-1.04-3.62,0-1.24.41-2.59,1.35-3.21,1.97-1.35,6.21-1.66,11.39-1.76Z"/>
      <path d="m64.11,56.66c0-4.97.52-10.46.93-16.05.52-5.8,1.24-11.81,1.24-17.82h.83c2.9,0,7.04,1.45,9.32,6.32.93,2.07,1.24,4.45,1.24,7.15s-.31,5.7-.52,8.91c-.41,5.28-1.04,10.56-1.04,16.16,0,3.11.1,5.9,1.24,7.35.52.73,1.35,1.04,2.38,1.04s2.49-.93,3.52-1.97c2.69-2.49,4.76-6.84,5.08-8.29,1.24,0,2.8,1.76,2.8,3.52,0,1.66-.73,4.04-1.76,5.9-2.9,5.18-6.94,8.18-11.39,8.18-6.42,0-10.77-3.94-12.33-8.49-1.45-4.35-1.55-7.97-1.55-11.91Zm12.84-51.79c2.49,1.55,4.35,3.94,4.35,6.84s-3,4.25-5.8,4.25c-3.11,0-6.63-1.66-8.91-4.14-1.35-1.55-2.07-3.21-2.07-4.66,0-.93.31-1.76.83-2.49.93-1.24,2.69-1.97,5.08-1.97,2.07,0,4.45.83,6.53,2.17Z"/>
      <path d="m132.27,68.78c2.59-2.17,5.08-6.01,5.59-9.22,1.24.21,2.9,1.66,2.9,4.25,0,.62-.21,1.55-.52,2.38-1.04,2.9-3.42,6.32-6.42,8.6-1.97,1.55-4.04,2.49-5.7,2.49-2.9,0-10.36-1.45-13.05-9.74-.83-2.8-1.14-5.8-1.14-8.8,0-3.83.41-7.87.72-11.81.21-2.8.62-6.11.62-8.8,0-3-.52-5.18-2.28-5.18-.93,0-2.28,1.55-3.73,4.14-1.86,3.42-4.04,8.6-5.9,14.09-3.52,9.84-6.53,20.82-6.53,23.93v.73c0,1.04-.52,1.45-1.24,1.45-2.38,0-7.46-4.56-8.6-11.6-.31-1.76-.41-3.52-.41-5.28,0-3.31.41-8.6.83-13.26.41-5.7.93-11.7.93-16.16,0-2.18-.1-3.94-.31-5.39.52-.1,1.14-.21,1.76-.21,3.11,0,6.53,2.07,8.18,5.9.62,1.35.73,3.83.73,6.53,0,5.7-1.04,12.33-1.04,15.95,0-.1.1-.21.1-.41.52-1.97,2.28-8.7,4.87-15.02,2.18-5.28,4.45-10.15,6.53-11.6,1.55-1.14,3.31-1.66,5.18-1.66,5.08,0,10.56,3.83,11.91,8.18.52,1.76.73,4.04.73,6.52,0,3.73-.41,7.98-.73,11.7-.1,1.76-.72,6.73-.72,11.08,0,3.31.1,7.87,3.11,7.87,1.14,0,2.38-.62,3.63-1.66Z"/>
      <path d="m154.33,19.99c.73,0,3.62.31,5.8.93,1.45.41,2.49,1.24,2.49,2.07,0,1.35-2.49,1.66-3.52,3-.83,1.04-1.35,2.69-1.35,4.14,0,.93.21,1.86.73,2.8,1.86,3.42,4.14,7.77,4.14,7.77,3.11,6.21,6.53,12.01,6.53,19.58,0,2.9-.83,6.73-3.42,11.7,2.28-1.35,3.83-2.17,6.84-4.56,2.8-2.28,4.45-4.87,5.59-7.87,1.14.42,2.9,1.24,2.9,4.14,0,3.73-2.17,6.42-4.87,8.6-5.18,4.14-13.15,6.53-18.33,6.53-8.49,0-20.3-2.49-24.55-10.98-.72-1.45-1.04-3.11-1.04-4.76,0-2.8.93-5.49,3.83-6.53.1.21.31.52.62.83,1.45-3.21,3-7.04,4.35-11.39,1.45-4.56,2.8-9.43,3.73-14.09-.31-1.35-.52-2.69-.52-3.94,0-1.04.1-1.97.41-2.9,1.24-3.52,5.18-5.08,9.63-5.08Zm-13.67,44.64c.52,2.18,7.35,6.63,11.81,6.63.72,0,1.35-.1,1.97-.41,1.76-.93,2.38-3,2.38-5.49,0-4.45-1.97-10.36-3.21-13.46-1.35-3.42-2.9-6.73-4.66-9.94-.93,3.31-1.97,6.73-3.11,10.05-1.66,4.77-4.25,9.63-5.18,12.64Z"/>
      <path d="m177.53,67.12c-.72-2.07-.93-5.8-.93-11.08,0-6.21.31-14.29.72-22.58,0-1.14.1-2.9.21-4.25-3.62-.1-6.42-.31-6.94-.31,0,0-.41-1.35-.41-2.59,0-.83.21-1.55.83-1.76,1.45-.41,3.83-.62,6.63-.73.1-2.8.1-5.08.1-8.49,0-4.97,0-7.98,1.04-11.19.62-.62,1.55-.93,2.59-.93,3,0,6.84,2.9,8.49,9.84.21.83.31,2.69.31,5.49,0,1.55,0,3.21-.1,5.08,1.97,0,3.73.1,5.39.1,1.97,0,3.62-.1,4.76-.31.21.52.31,1.14.31,1.66,0,1.66-1.24,2.9-4.76,3.52-1.55.31-3.73.52-6.11.62-.21,2.07-.52,4.25-.93,6.32-.93,8.29-1.45,15.43-1.45,21.34,0,6.73.83,11.7,2.69,13.15.72.62,1.55.83,2.49.83,4.14,0,9.32-5.59,10.36-11.6,1.14.1,2.9,1.45,2.9,4.35,0,.83-.1,1.86-.62,3.21-2.59,6.94-8.39,10.25-14.71,10.25-7.46,0-10.98-4.56-12.84-9.94Z"/>
      <path d="m244.13,70.43c3.73,0,7.97-7.35,8.91-10.88,1.14.31,2.59,1.66,2.59,4.35,0,.72-.1,1.45-.31,2.28-1.76,5.18-6.94,10.77-13.36,10.77-2.49,0-6.01-1.35-8.18-3-1.66-1.24-3-2.9-3.42-4.66-.93-4.14-1.24-6.73-1.24-9.32,0-1.35.1-2.69.21-4.35,0-.42.1-.83.1-1.24-1.45,4.97-6.42,19.58-12.95,21.85-.93.31-1.86.42-2.69.42-3.52,0-6.94-2.38-9.42-6.32-2.8-4.35-4.66-10.67-4.87-17.3v-1.14c0-10.56,4.25-23.3,12.84-26.72,1.76-.73,3.63-1.04,5.49-1.04,5.08,0,10.05,2.49,13.15,6.94.21-1.14.31-2.18.41-3.73.1-1.04.83-1.55,1.97-1.55,3.21,0,9.01,3.73,9.12,8.29,0,1.04-.21,3.62-.52,6.73-.62,5.9-1.35,13.88-1.35,19.89,0,4.87.52,8.6,2.07,9.32.52.21.93.41,1.45.41Zm-23.1-8.18c3.31-5.7,6.63-15.23,8.49-23.62-.31-3.31-3-7.98-6.42-7.98-1.14,0-2.38.52-3.62,1.76-4.25,4.45-6.73,16.36-6.73,24.86,0,5.28,1.45,10.25,3,10.25s3.42-2.07,5.28-5.28Z"/>
      <path d="m279.65,64.84c0-4.97,1.04-11.5,1.04-13.46-2.59,7.87-5.7,16.57-9.53,21.34-1.66,2.07-3.83,3.83-6.84,3.83-2.28,0-4.56-.93-6.73-2.8-2.59-2.28-4.87-5.8-6.42-10.77-1.04-3.52-1.66-7.35-1.66-11.19,0-6.84,1.76-13.57,4.97-18.85,3.42-5.39,8.6-9.11,14.92-9.11,3.52,0,8.6,2.18,11.19,6.94.31-1.14.52-2.38.62-3.42.1-.52,1.04-.73,2.17-.73,3,0,7.56,1.76,9.11,4.45.31.62.42,1.14.42,1.86-.62,4.25-.21,7.46-.62,14.81-.31,5.7-.83,19.27-.83,20.51,2.17-1.55,4.25-3.11,6.01-4.56,2.07-1.66,3.73-3.42,4.87-4.97,1.14.62,2.59,2.07,2.59,4.25,0,1.04-.52,2.49-1.55,3.94-2.59,3.52-7.35,6.73-12.64,9.53-.72,5.8-2.38,11.91-5.8,15.95-3.31,3.94-9.43,5.8-14.92,5.8-3.73,0-12.12-1.14-12.12-6.84,0-1.14.41-2.28,1.04-3.42,2.18-3.42,7.46-6.01,12.22-8.29,3.21-1.55,8.29-4.25,8.29-4.25,0-1.97.21-5.18.21-10.57Zm-5.8-8.6c2.38-5.28,4.14-11.6,5.8-17.61-.62-4.56-3.83-8.18-6.94-8.18-4.56,0-8.29,10.98-9.32,19.47-.31,2.69-.41,5.07-.41,7.15,0,7.15,1.55,10.56,3.62,10.56s4.45-5.39,7.25-11.39Zm5.08,26c-1.55.62-7.87,3.62-9.53,4.87-.62.41-1.87,1.35-1.87,2.17,0,1.14,1.66,1.86,3.63,1.86s4.35-.83,5.59-2.9c1.04-1.86,1.66-3.83,2.17-6.01Z"/>
      <path d="m311.76,76.03c-.72.42-1.55.52-2.38.52-3.31,0-6.84-2.8-7.87-5.59-1.24-3.11-1.66-10.25-1.66-17.81,0-4.25.1-9.94.21-13.98.1-3.31.21-6.32.21-8.7,0-2.17-.21-3.83-.41-4.97.73-.21,1.45-.31,2.17-.31,3,0,5.7,1.86,7.35,4.56,2.07,3.11,2.28,7.35,2.28,11.7v4.04c.93-3.11,2.07-6.01,3.11-7.98-.1-.73-.21-1.55-.21-2.28,0-1.04.1-2.38.41-3.73.73-3,1.86-5.28,3.42-6.52.62-.52,1.35-.73,2.18-.73,3.31,0,7.77,3.52,7.77,7.66,0,2.8-4.25,7.66-4.25,7.66,0,0,1.86,5.39,6.84,6.42.31.1.72.1,1.04.1,3.31,0,6.42-2.9,7.25-6.21,1.76.21,2.9,1.76,2.9,4.25,0,5.28-4.87,8.49-10.77,8.49s-10.88-2.8-13.67-7.04c-1.35,2.17-2.69,5.08-3.83,8.08-1.45,3.73-2.49,7.77-2.49,10.46,0,4.25.1,7.87.41,11.91Z"/>
      <path d="m377.95,70.43c3.73,0,7.97-7.35,8.91-10.88,1.14.31,2.59,1.66,2.59,4.35,0,.72-.1,1.45-.31,2.28-1.76,5.18-6.94,10.77-13.36,10.77-2.49,0-6.01-1.35-8.18-3-1.66-1.24-3-2.9-3.42-4.66-.93-4.14-1.24-6.73-1.24-9.32,0-1.35.1-2.69.21-4.35,0-.42.1-.83.1-1.24-1.45,4.97-6.42,19.58-12.95,21.85-.93.31-1.86.42-2.69.42-3.52,0-6.94-2.38-9.42-6.32-2.8-4.35-4.66-10.67-4.87-17.3v-1.14c0-10.56,4.25-23.3,12.84-26.72,1.76-.73,3.63-1.04,5.49-1.04,5.08,0,10.05,2.49,13.15,6.94.21-1.14.31-2.18.41-3.73.1-1.04.83-1.55,1.97-1.55,3.21,0,9.01,3.73,9.12,8.29,0,1.04-.21,3.62-.52,6.73-.62,5.9-1.35,13.88-1.35,19.89,0,4.87.52,8.6,2.07,9.32.52.21.93.41,1.45.41Zm-23.1-8.18c3.31-5.7,6.63-15.23,8.49-23.62-.31-3.31-3-7.98-6.42-7.98-1.14,0-2.38.52-3.62,1.76-4.25,4.45-6.73,16.36-6.73,24.86,0,5.28,1.45,10.25,3,10.25s3.42-2.07,5.28-5.28Z"/>
      <path d="m451.28,77.27c-4.97,0-10.46-4.04-12.02-9.94-.83-3.21-1.14-6.42-1.14-9.84,0-5.08.62-10.15.62-15.74,0-.83,0-3.11-.52-5.08-.42-1.55-1.04-2.8-2.18-2.8-.72,0-1.76,1.04-2.8,2.9-1.97,3.42-4.25,9.22-6.21,15.43-2.9,9.01-5.28,18.64-5.28,22.27v.62c-1.04.31-2.18.52-3.42.52-3.31,0-6.84-1.45-7.77-4.97-.21-.93-.31-1.97-.31-3.21,0-3.62.72-8.6.93-14.6.1-2.28.1-4.76.1-7.04,0-6.32-.41-11.7-2.59-11.7s-5.8,9.01-8.8,18.85c-2.69,8.91-4.87,18.44-4.87,22.58-.52.21-1.04.31-1.76.31-3.63,0-9.43-2.9-9.74-6.84-.1-1.45-.21-3.52-.21-5.9,0-4.66.21-10.46.52-14.92.31-5.7.83-9.94.83-14.29,0-2.17-.1-4.35-.52-6.73.62-.21,1.35-.31,2.07-.31,3,0,6.63,1.55,8.08,4.66.62,1.35,1.14,4.25,1.14,8.18,0,.93,0,1.97-.73,13.98.31-1.45,2.49-10.36,5.28-17.5,1.76-4.56,3.83-10.25,9.94-10.25,4.56,0,9.01,3.42,10.67,7.46,1.45,3.52,1.76,7.46,1.76,11.29,0,2.28-.1,4.45-.21,7.56,1.76-7.04,3.94-12.02,5.9-17.19,1.76-4.76,4.97-9.22,9.63-9.22,4.35,0,10.05,2.38,12.12,9.22.52,1.97.72,4.04.72,6.32,0,3.11-.31,6.42-.52,9.84-.1,2.07-.52,6.53-.52,10.56s.31,7.35,1.76,8.29c.52.41,1.04.52,1.66.52,1.55,0,3.11-1.24,4.56-3,2.18-2.69,4.04-6.42,4.56-8.29,1.14.21,2.59,1.66,2.59,4.25,0,.72-.1,1.45-.31,2.28-1.45,5.08-6.84,10.05-10.77,11.19-.73.21-1.45.31-2.28.31Z"/>
    </g>
  </g>
</svg>